/* XPM */
static char *result[] = {
/* columns rows colors chars-per-pixel */
"64 64 90 1 ",
"  c #000000",
". c #00000C",
"X c #000014",
"o c #00001C",
"O c #000024",
"+ c #00002C",
"@ c #000133",
"# c #000C36",
"$ c #001037",
"% c #011439",
"& c #06183A",
"* c #0B1B3B",
"= c #121E3D",
"- c #16213E",
"; c #18233F",
": c #1A2440",
"> c #1F2842",
", c #242C44",
"< c #282F46",
"1 c #2A3147",
"2 c #2D3449",
"3 c #31374B",
"4 c #353A4D",
"5 c #3A3F50",
"6 c #3D4152",
"7 c #424656",
"8 c #444857",
"9 c #464A59",
"0 c #4A4D5B",
"q c #4E515E",
"w c #525562",
"e c #565965",
"r c #585A66",
"t c #5B5E69",
"y c #5E606B",
"u c #61636E",
"i c #646770",
"p c #676972",
"a c #6B6D76",
"s c #6D6F78",
"d c #6E7079",
"f c #73757D",
"g c #777981",
"h c #7B7D84",
"j c #7F8087",
"k c #7F8188",
"l c #83848B",
"z c #87888E",
"x c #88898F",
"c c #8B8D92",
"v c #8F9096",
"b c #94959A",
"n c #97989D",
"m c #999A9F",
"M c #9C9DA1",
"N c #9FA0A5",
"B c #A1A2A6",
"V c #A4A5A9",
"C c #A7A8AC",
"Z c #A9AAAE",
"A c #ADADB1",
"S c #AFB0B3",
"D c #B1B2B5",
"F c #B5B6B9",
"G c #B7B8BB",
"H c #BABBBE",
"J c #BEBEC1",
"K c #BFC0C2",
"L c #C2C3C5",
"P c #C7C7C9",
"I c #C7C8CA",
"U c #CACBCD",
"Y c #CECED0",
"T c #CFD0D2",
"R c #D3D3D5",
"E c #D7D7D8",
"W c #DBDBDC",
"Q c #DFDFE0",
"! c #DFE0E1",
"~ c #E3E3E4",
"^ c #E7E7E8",
"/ c #E7E8E8",
"( c #EBEBEC",
") c #EFEFF0",
"_ c #EFF0F0",
"` c #F3F3F3",
"' c #F7F7F8",
"] c #F7F8F8",
"[ c #FDFDFD",
"{ c None",
/* pixels */
"{{{{{{{{{{{{{{{{{{{{{{{{{{::-::--::-::{{{{{{{{{{{{{{{{{{{{{{{{{{",
"{{{{{{{{{{{{{{{{{{{{{{;;-----------------;{{{{{{{{{{{{{{{{{{{{{{",
"{{{{{{{{{{{{{{{{{{{;-----------------------;:{{{{{{{{{{{{{{{{{{{",
"{{{{{{{{{{{{{{{{{:---------------------------::{{{{{{{{{{{{{{{{{",
"{{{{{{{{{{{{{{{{-------------------------------:{{{{{{{{{{{{{{{{",
"{{{{{{{{{{{{{{---------------------------;--------{{{{{{{{{{{{{{",
"{{{{{{{{{{{{{----------------------------=---------{{{{{{{{{{{{{",
"{{{{{{{{{{{;----------------------------------------:{{{{{{{{{{{",
"{{{{{{{{{{:-----------------;==;----;-----------------{{{{{{{{{{",
"{{{{{{{{{;-----------------;@++&-$%$%@++@;------------:{{{{{{{{{",
"{{{{{{{{-------------------@pWP3%7978qUWp@--------------{{{{{{{{",
"{{{{{{{;-------------------XL[[lc``'`][[LX--=-----------;{{{{{{{",
"{{{{{{{--------------:*=---+z](4C]VBBB~`x+---------------{{{{{{{",
"{{{{{{--------------:+;++++&O~J Z`&Xoo28+;----------------{{{{{{",
"{{{{{---------------+b(Lfhf2+^K Z`5%@@+++$:----------------{{{{{",
"{{{{{--------------=+~[[][[m ^K C`4>ttfWEq$----------------{{{{{",
"{{{{;---------------+M`Pdg'A ^L Z`=M[][[[Mo-----------------{{{{",
"{{{;-----------------@2@O=Wc YJ Z)%lYlb(/u@-----------------;{{{",
"{{{-------------------&=->@X;&8+ha@+ oO43@;------------------{{{",
"{{{---------------------:OlE(Qco;D(/Lq+&&:-------------------{{{",
"{{-----------=:$O%;----;OM[/L~[NR[YU](r@----;*O@;------------;{{",
"{{-----------:$9c7%---*.9]Y@ +T[[c  u'T o#;-*1xy@;%o+---------{{",
"{:-----------**W[E#=;%%B^[p+;+y_EO=; H[~G0+;OH[(q@qSj@--------:{",
"{:-----------*</[^;***U[([jO--$62*;=oP[W[(f+OU[]y Y[`q#--------{",
"{-------------Ob[x+-oA[V>(~,&--$&;;$6)H f`(6+t'HOOI[)9%--------{",
"{-------------+g]r +3`E.OhL4*:----;=>h4&Xh[AX>`AX@t]Mo---------{",
":-------------+h[JDdi[no;@o=@XX+;;%XX+&;=+^EXR[Zo#q'c+---------:",
":----------=@*@u^`~wb[cO---@fIUc+@pIPe#;=+~EXVFt@@w'vO---------:",
"----------=%r-oo+1ok](u@---oI[[~@Oc[[s+-&</`e o@%@q'vO---------;",
";---------+F[Rbnb27`/0+;--#8`[][f c[[a@--@h[EXM(//([c+---------;",
":--------*@^[[][^*B[gO;--;oM[EI[H c[[s@--: V[hqJJJKD9%---------:",
">---------@vWV8q7.P`,&---=+W[Dn[(%z[[a+---@w[Z     u6$--------->",
",=-=----;;;+@>322.D[q@---@a][]][[xj[[a@---+i[B@BACU[Q4%:------=>",
";-------=;%4W```_aa[H.=--oF['RE_[Yz[[s+-:$ L[it()([[[e@:-------:",
";;------;-#w]IVZZs L[Z+-==R`D  N`Wc(/i@-*2J[H +@>-fRB#---------:",
";;--------#w'x o.%;,_WO--;42-=-=23122:--oC[J-cMb9#+oO----------:",
";=;;------#q'cO#t/P+_LX;;=Oo$:-=&&=$OO=;XD]3V]][Zo-------------:",
";;;=------#9'cO+h[V !~+*=+bWi@--;;$qEB@*.U`<8ww`Do------------=:",
"{-=;-----=+n[FO+f[a B[M  D[Wq#-@@;%5R[J f[Lo%@+(Z.-------------{",
"{--------=#^['6OD[H+%E[Hc]LO#:$iy$;%XF[Z`)q#;+c[W3&------------{",
"{;-------=+H[U#:([`2@2P[[[t+;&1(^**;+y[[~a+;-oY[[f+------------{",
"{:--------=%e;*+V`S@-%OrA[c % c[[ao# V[n%+;--+l/U2*-----------:{",
"{{;--------=@*;-+>+=--=++W`z2h`^`Wt8B[Yo%----;@-@*------------{{",
"{{;--------------*-----;@w~['[/eh'[][R3#-------*-------------:{{",
"{{{;-=;;--------------%O@@;cDn3#+0BZfo%=---------------------{{{",
"{{{;--;=-------------&6by <9 qU02Z0 yd%-++-------------------{{{",
"{{{;=;;==-----------:OU[_LW`5n]8,`D ~H Ohf#:----------------;{{{",
"{{{{;;=;------------=OE[[Q~U%b`7>_A ^^FI[[h+----------------{{{{",
"{{{{{----------------#tFloO+On`7,_D H((_[[bO---------------{{{{{",
"{{{{{----------------;#  #-=On'8;)Ao@*%3AZ,=---------------{{{{{",
"{{{{{{----------------#rMqXO b`73`FX-*=%oO*;--------------{{{{{{",
"{{{{{{{;-------------*;~[(WWW/'2H[`t@;-------------------{{{{{{{",
"{{{{{{{;-------------&,/[`TRRRGOL[[u@-------------------:{{{{{{{",
"{{{{{{{{:-------------@aDy oooO%8Zz@--------------------{{{{{{{{",
"{{{{{{{{{;-------------@X@:----;%o+;------------------:{{{{{{{{{",
"{{{{{{{{{{--------------:-=---------------------------{{{{{{{{{{",
"{{{{{{{{{{{;----------------------------------------;{{{{{{{{{{{",
"{{{{{{{{{{{{{--------------------------------------{{{{{{{{{{{{{",
"{{{{{{{{{{{{{{------------------------------------{{{{{{{{{{{{{{",
"{{{{{{{{{{{{{{{{:-------------------------------{{{{{{{{{{{{{{{{",
"{{{{{{{{{{{{{{{{{:---------------------------::{{{{{{{{{{{{{{{{{",
"{{{{{{{{{{{{{{{{{{{:------------------------:{{{{{{{{{{{{{{{{{{{",
"{{{{{{{{{{{{{{{{{{{{{{;;-----------------:{{{{{{{{{{{{{{{{{{{{{{",
"{{{{{{{{{{{{{{{{{{{{{{{{{{:;;::--::;:;{{{{{{{{{{{{{{{{{{{{{{{{{{"
};
