/* XPM */
static char *ac81a5995850451feb3d655b31ac511ep0OFkka4qzaYLgcF[] = {
/* columns rows colors chars-per-pixel */
"16 16 115 2 ",
"   c None",
".  c #00001D",
"X  c #000023",
"o  c #000029",
"O  c #00002A",
"+  c #00002B",
"@  c #00002C",
"#  c #00002E",
"$  c #00002F",
"%  c #000030",
"&  c #000031",
"*  c #000032",
"=  c #000033",
"-  c #000534",
";  c #000535",
":  c #000735",
">  c #000835",
",  c #000935",
"<  c #000C36",
"1  c #001138",
"2  c #001238",
"3  c #001338",
"4  c #001439",
"5  c #011539",
"6  c #031639",
"7  c #06183A",
"8  c #07183A",
"9  c #08193A",
"0  c #131F3D",
"q  c #16213E",
"w  c #17213E",
"e  c #17223E",
"r  c #17223F",
"t  c #18223F",
"y  c #18233F",
"u  c #192340",
"i  c #2A3047",
"p  c #32374B",
"a  c #3F4353",
"s  c #474A59",
"d  c #474B5A",
"f  c #494D5B",
"g  c #515461",
"h  c #575A66",
"j  c #595C68",
"k  c #5C5F6A",
"l  c #60626D",
"z  c #62646E",
"x  c #62646F",
"c  c #62656F",
"v  c #646670",
"b  c #656871",
"n  c #666872",
"m  c #676972",
"M  c #676973",
"N  c #696B74",
"B  c #6A6C75",
"V  c #6A6D76",
"C  c #6C6F77",
"Z  c #6D6F78",
"A  c #6E7078",
"S  c #70727A",
"D  c #71737C",
"F  c #73757D",
"G  c #74767E",
"H  c #76787F",
"J  c #777880",
"K  c #777980",
"L  c #777981",
"P  c #797B82",
"I  c #7A7C83",
"U  c #7C7D84",
"Y  c #7C7D85",
"T  c #7C7E85",
"R  c #7F8087",
"E  c #7F8188",
"W  c #83848B",
"Q  c #85868D",
"!  c #87888F",
"~  c #87898F",
"^  c #88898F",
"/  c #8B8C92",
"(  c #8C8E93",
")  c #8D8E94",
"_  c #8F9096",
"`  c #939499",
"'  c #95969B",
"]  c #97989D",
"[  c #9A9BA0",
"{  c #9C9DA2",
"}  c #9D9EA2",
"|  c #9D9EA3",
" . c #9E9FA3",
".. c #A0A1A6",
"X. c #A1A1A6",
"o. c #A1A2A6",
"O. c #A1A2A7",
"+. c #A3A4A8",
"@. c #A4A5A9",
"#. c #A5A6AA",
"$. c #A6A7AB",
"%. c #A7A8AC",
"&. c #A8A8AC",
"*. c #A9AAAD",
"=. c #A9AAAE",
"-. c #AAAAAE",
";. c #AAABAF",
":. c #ACADB0",
">. c #ADADB1",
",. c #ADAEB2",
"<. c #AFAFB3",
"1. c #AFB0B3",
"2. c #BCBDC0",
"3. c #BDBEC1",
"4. c #E3E3E4",
/* pixels */
"          q q q q q q           ",
"      q q q 0 # = + 9 q q       ",
"    q q t # 4 ! K ` f 4 q q     ",
"  q q q < ( ! 1.$. .v , q q q   ",
"  q t 2 # b '  .....c X = 2 t   ",
"q q ; b T l 1.' ` :.B / T h 2 q ",
"q q = b $.%.S h a F $.$. .K = q ",
"u ; c :.+.P j 4.3.) G  .:.k , u ",
"u 2 g *. .K R 3.3.D Q +.$.N = u ",
"q = S ..*.$._ i p ' $...F + q q ",
"q 7 d A W c *.%.$.*.d C b ; q q ",
"  q 7 = . H ..[  .] Z + < t q   ",
"  q q q = A  .*.:.E T ; q q q   ",
"    q q 2 g ^ B I # = t q q     ",
"      q t 4 + = = q q q q       ",
"          q q q q q q           "
};
