/* XPM */
static char *c17ef76ee54f4001bff1381cf1a48b6bcDmabvQGZ6Mwbi9V[] = {
/* columns rows colors chars-per-pixel */
"32 32 110 2 ",
"   c None",
".  c #000000",
"X  c #00000C",
"o  c #000017",
"O  c #00001C",
"+  c #000022",
"@  c #00002B",
"#  c #000233",
"$  c #000B36",
"%  c #031539",
"&  c #05183A",
"*  c #0C1B3B",
"=  c #121E3D",
"-  c #16213E",
";  c #18233F",
":  c #1C2641",
">  c #242C44",
",  c #282F46",
"<  c #293046",
"1  c #2E3449",
"2  c #31374B",
"3  c #353A4D",
"4  c #393D4F",
"5  c #3A3F51",
"6  c #3D4152",
"7  c #4A4D5B",
"8  c #4E515F",
"9  c #525562",
"0  c #575965",
"q  c #5D5F6A",
"w  c #5E616B",
"e  c #60636D",
"r  c #646670",
"t  c #6A6C75",
"y  c #6D6F78",
"u  c #6F717A",
"i  c #72747C",
"p  c #76787F",
"a  c #777981",
"s  c #7A7C83",
"d  c #7F8188",
"f  c #83858B",
"g  c #87898F",
"h  c #88898F",
"j  c #8A8C91",
"k  c #8F9096",
"l  c #909297",
"z  c #93949A",
"x  c #97989D",
"c  c #999A9E",
"v  c #9D9EA2",
"b  c #9FA0A4",
"n  c #A1A2A6",
"m  c #A4A5A9",
"M  c #A7A8AC",
"N  c #A8A9AD",
"B  c #ADAEB1",
"V  c #AFB0B3",
"C  c #B2B3B6",
"Z  c #B5B6B9",
"A  c #B7B8BB",
"S  c #B9BABD",
"D  c #BEBFC1",
"F  c #BFC0C2",
"G  c #C2C3C5",
"H  c #C6C7C9",
"J  c #CCCDCE",
"K  c #CDCECF",
"L  c #CACBCD",
"P  c #CDCED0",
"I  c #CFCFD1",
"U  c #CFD0D1",
"Y  c #CFD0D2",
"T  c #D1D2D3",
"R  c #D2D3D4",
"E  c #D3D3D5",
"W  c #D3D4D5",
"Q  c #D4D4D6",
"!  c #D4D5D6",
"~  c #D5D6D7",
"^  c #D6D6D7",
"/  c #D2D2D4",
"(  c #D6D6D8",
")  c #D6D7D8",
"_  c #D7D7D9",
"`  c #D7D8D9",
"'  c #D9D9DA",
"]  c #DADADB",
"[  c #DBDCDD",
"{  c #DDDDDE",
"}  c #DEDEDF",
"|  c #D9DADB",
" . c #DEDEE0",
".. c #E0E1E2",
"X. c #E1E1E2",
"o. c #E3E3E4",
"O. c #E4E4E5",
"+. c #E7E8E8",
"@. c #E8E9E9",
"#. c #E9E9EA",
"$. c #EAEAEB",
"%. c #EBEBEC",
"&. c #ECECEC",
"*. c #ECECED",
"=. c #ECEDED",
"-. c #EDEDEE",
";. c #EFEFF0",
":. c #F0F0F1",
">. c #F1F1F1",
",. c #F4F5F5",
/* pixels */
"                        ; ; ; ; ; ; ; ;                         ",
"                  ; ; ; ; ; ; ; ; ; ; ; ; ; ;                   ",
"              ; ; ; ; ; ; ; ; ; ; ; ; ; ; ; ; ; ;               ",
"            ; ; ; ; ; ; ; ; * = ; ; ; * = ; ; ; ; ;             ",
"          ; ; ; ; ; ; ; ; = = = @ O + ; * ; ; ; ; ; ;           ",
"        ; ; ; ; ; ; = * = @ L Z k S S #.a @ ; ; ; ; ; ;         ",
"      ; ; ; ; ; ; ; ; , + . G N L c f B 8 % ; ; ; ; ; ; ;       ",
"    ; ; ; ; ; ; ; @ k *.G v m k G 0 9 h d # ; ; ; ; ; ; ; ;     ",
"    ; ; ; ; ; ; ; $ r M f Z z j S a H O.H + ; ; ; ; ; ; ; ;     ",
"  ; ; ; ; ; ; * # ; $ O @ l C w j C a $ 1 = * # ; = ; ; ; ; ;   ",
"  ; ; ; ; ; * 6 q * * . n L m  .~ v R f X $ 3 e ; @ # ; ; ; ;   ",
"  ; ; ; ; ; + N #.< & Z ;.y . z s . c *.G 2 j :.7 F v @ ; ; ;   ",
"; ; ; ; ; ; @ d H . n F z c . . # O g i m G e ~ @ ( m + ; ; ; ; ",
"; ; ; ; ; # . 0 ] l J s o # s f @ s u O 5 R j C . C s @ ; ; ; ; ",
"; ; ; ; # i Z f t b U 3 # 2 *.,.3 ~ J X , W f g B ( p @ ; ; ; ; ",
": = ; ; @ l X.Z a U w @ + z #.+.v P L O @ a L y z v 7 % ; ; = : ",
": = ; ; * < M C f L f @ @ ` :.*.} ( P o + h G f G %.C O ; ; ; : ",
"; ; ; ; $ w R g i f ~ * > n r w N c f O r [ l f q f r $ ; ; ; ; ",
"; ; ; ; $ w D . Z z T : # f 6 @ X , j O c S j ] f . # ; ; ; ; ; ",
"; ; ; ; + c %.> W f A S C G < 4 5 : F S ~ s . G m + ; ; ; ; ; ; ",
"  ; ; ; # i B 3 } b @ B #.t . L G . i #.j @ # W Z + ; ; ; ; ;   ",
"  ; ; ; ; # + * < ; * . f R G J J F ~ a X ; = , : = ; ; ; ; ;   ",
"  ; ; ; ; ; ; ; * = * e 5 a c i t x i . O & ; * * ; ; ; ; ; ;   ",
"    ; ; ; ; ; ; ; * = o.X.H j B N k J v H 9 $ ; ; ; ; ; ; ;     ",
"    ; ; ; ; ; ; ; ; * y 8 O a B N j x Z ] q # ; ; ; ; ; ; ;     ",
"      ; ; ; ; ; ; ; @ f L v F C J V . O @ & ; ; ; ; ; ; ;       ",
"        ; ; ; ; ; ; @ j R v v r D n @ ; = ; ; ; ; ; ; ;         ",
"          ; ; ; ; ; ; # + + + # @ # ; ; ; ; ; ; ; ; ;           ",
"            ; ; ; ; ; ; = ; ; ; ; ; ; ; ; ; ; ; ; ;             ",
"              ; ; ; ; ; ; ; ; ; ; ; ; ; ; ; ; ; ;               ",
"                  ; ; ; ; ; ; ; ; ; ; ; ; ; ;                   ",
"                        ; ; ; ; ; ; ; ;                         "
};
