/* XPM */
static char *result[] = {
/* columns rows colors chars-per-pixel */
"128 128 88 1 ",
"  c #000001",
". c #00000C",
"X c #000016",
"o c #00001B",
"O c #000023",
"+ c #00002C",
"@ c #000132",
"# c #000D36",
"$ c #001037",
"% c #021539",
"& c #06183A",
"* c #0C1B3B",
"= c #121E3D",
"- c #16213E",
"; c #18233F",
": c #1A2441",
"> c #1F2943",
", c #232B44",
"< c #282F46",
"1 c #2A3047",
"2 c #2E3449",
"3 c #31364B",
"4 c #353A4D",
"5 c #383D4F",
"6 c #3A3E50",
"7 c #3E4353",
"8 c #424656",
"9 c #444857",
"0 c #464A59",
"q c #4A4E5C",
"w c #4E515E",
"e c #515461",
"r c #565965",
"t c #585B67",
"y c #5B5E69",
"u c #5E616B",
"i c #61646E",
"p c #646771",
"a c #666872",
"s c #6A6C75",
"d c #6D6F78",
"f c #6F7179",
"g c #72747C",
"h c #777980",
"j c #7B7D84",
"k c #7F8087",
"l c #7F8188",
"z c #83848B",
"x c #87888E",
"c c #88898F",
"v c #8B8D92",
"b c #8F9096",
"n c #909196",
"m c #94959A",
"M c #97989D",
"N c #999A9F",
"B c #9C9DA2",
"V c #A1A2A6",
"C c #A4A5A9",
"Z c #A7A8AC",
"A c #A9AAAE",
"S c #ADAEB1",
"D c #AFB0B3",
"F c #B2B3B6",
"G c #B5B6B9",
"H c #B7B8BB",
"J c #B9BABD",
"K c #BDBEC1",
"L c #BFC0C2",
"P c #C2C2C5",
"I c #C6C6C9",
"U c #C7C8CA",
"Y c #CACACC",
"T c #CECFD0",
"R c #CFD0D2",
"E c #D3D3D5",
"W c #D7D7D8",
"Q c #D7D8D9",
"! c #DCDCDD",
"~ c #DFDFE0",
"^ c #DFE0E1",
"/ c #E3E4E5",
"( c #E7E7E8",
") c #ECECED",
"_ c #EFEFF0",
"` c #F4F4F4",
"' c #FFFFFF",
"] c None",
/* pixels */
"]]]]]]]]]]]]]]]]]]]]]]]]]]]]]]]]]]]]]]]]]]]]]]]]]]]]]]]:;:::,;----->;;,;:]]]]]]]]]]]]]]]]]]]]]]]]]]]]]]]]]]]]]]]]]]]]]]]]]]]]]]]",
"]]]]]]]]]]]]]]]]]]]]]]]]]]]]]]]]]]]]]]]]]]]]]]]]]]:;;;;;--;;=;----;==-;;;;;;::]]]]]]]]]]]]]]]]]]]]]]]]]]]]]]]]]]]]]]]]]]]]]]]]]]",
"]]]]]]]]]]]]]]]]]]]]]]]]]]]]]]]]]]]]]]]]]]]]]];;;=;;;=;;----;=;---------;;;==;;;;:]]]]]]]]]]]]]]]]]]]]]]]]]]]]]]]]]]]]]]]]]]]]]]",
"]]]]]]]]]]]]]]]]]]]]]]]]]]]]]]]]]]]]]]]]]]]:;;;-;;;==;;=----=;----------;==;;;=;=;;;:]]]]]]]]]]]]]]]]]]]]]]]]]]]]]]]]]]]]]]]]]]]",
"]]]]]]]]]]]]]]]]]]]]]]]]]]]]]]]]]]]]]]]]:;;=;;------;;;=--------------------==;;------;;]]]]]]]]]]]]]]]]]]]]]]]]]]]]]]]]]]]]]]]]",
"]]]]]]]]]]]]]]]]]]]]]]]]]]]]]]]]]]]]]];;;;;=;=------;==;--------------------;;;=------;-;:]]]]]]]]]]]]]]]]]]]]]]]]]]]]]]]]]]]]]]",
"]]]]]]]]]]]]]]]]]]]]]]]]]]]]]]]]]]]]:;--==;;=-----;-=-;;--------------------;==;--------;;=;]]]]]]]]]]]]]]]]]]]]]]]]]]]]]]]]]]]]",
"]]]]]]]]]]]]]]]]]]]]]]]]]]]]]]]]]]:;=;--;;;=;-----=;;-;=------------------;=;;=;--------;=;;;;]]]]]]]]]]]]]]]]]]]]]]]]]]]]]]]]]]",
"]]]]]]]]]]]]]]]]]]]]]]]]]]]]]]]];;--------------------------------------------=;--------------;;]]]]]]]]]]]]]]]]]]]]]]]]]]]]]]]]",
"]]]]]]]]]]]]]]]]]]]]]]]]]]]]]]:;-;--------------------------------------------=;;=--------------;:]]]]]]]]]]]]]]]]]]]]]]]]]]]]]]",
"]]]]]]]]]]]]]]]]]]]]]]]]]]]]];;;;=--------------------------------------------;-----------------;;;]]]]]]]]]]]]]]]]]]]]]]]]]]]]]",
"]]]]]]]]]]]]]]]]]]]]]]]]]]]:;=;=;=---------------------------;=---------------------------------==;;:]]]]]]]]]]]]]]]]]]]]]]]]]]]",
"]]]]]]]]]]]]]]]]]]]]]]]]]];-;;=;------------=;--------------------------------------------------;=;=;;]]]]]]]]]]]]]]]]]]]]]]]]]]",
"]]]]]]]]]]]]]]]]]]]]]]]]];--=;;=----------------------------------------------------------------;;;=--;]]]]]]]]]]]]]]]]]]]]]]]]]",
"]]]]]]]]]]]]]]]]]]]]]]];;;;-=;;=--------------------------------------------------------;=------==;;----:]]]]]]]]]]]]]]]]]]]]]]]",
"]]]]]]]]]]]]]]]]]]]]]];;;==;;=;;------------------=;-------------------;=-------------;=;-------;;=;----;;]]]]]]]]]]]]]]]]]]]]]]",
"]]]]]]]]]]]]]]]]]]]]];;=;;----------=;----------;==;;=;;=;;==;;=--------;;=;;==;=;;=;;=;----------------;=;]]]]]]]]]]]]]]]]]]]]]",
"]]]]]]]]]]]]]]]]]]]]--;;;=-----------------------;;=;;==;;=;;;=;--------=;;=;;:==;;==;=;;=--------------;;;;]]]]]]]]]]]]]]]]]]]]",
"]]]]]]]]]]]]]]]]]]]:----==;-----------------------;;=;;;;=;;;==;-------==;;;=;=:;=;;;;;=----------------=;;;:]]]]]]]]]]]]]]]]]]]",
"]]]]]]]]]]]]]]]]]];;----;;=;----------------------=;;==;;=+XX#;;-------;;=;:#XXO=;=;==;;----------------;==;;;]]]]]]]]]]]]]]]]]]",
"]]]]]]]]]]]]]]]]];=;=;---------------;;=------------;;===@mIFq@;;;&&&&&&&&&+wHYm#==;;-------------------;;=;-=;]]]]]]]]]]]]]]]]]",
"]]]]]]]]]]]]]]]];;;;=;---------------=;-------------=;;;OF'''/0$=@23232323<e('''GO;;=;------------------=;;=---;]]]]]]]]]]]]]]]]",
"]]]]]]]]]]]]]]];;;;=;;=-----------------------------;=:#w`''''SX+V)))))))))`''''`e#=--------------------;=;=----:]]]]]]]]]]]]]]]",
"]]]]]]]]]]]]]];;;==;;=;---------------------------;=;=;@i`''''HX+/'''''''''''''''s+------------------------;----;;]]]]]]]]]]]]]]",
"]]]]]]]]]]]]]];=------------------------;;;=;==;-------*=!''''zO+!'`EEWEWWEW''''~=*=----------------------------=;]]]]]]]]]]]]]]",
"]]]]]]]]]]]]];=;------------------------==;;;;;=--------@u(''Z+=+~'(XXOOoOo.V_`!p@=;------------------=---------;;;]]]]]]]]]]]]]",
"]]]]]]]]]]]];=;;----------------;-=;----;=;===;;--------; H'`7#=+~'(%*--=;;=O5r#+;;;----=-------------;---;;----;==;]]]]]]]]]]]]",
"]]]]]]]]]]]:;;;=----------------=;;=----;;:@o+o&--------;XH'`q#=@!'/%*-;;=;;;$#*;;;=----;----------------;==----=;;;:]]]]]]]]]]]",
"]]]]]]]]]]];----------------=---;=;;;;;==;+sT!G<XOOOOO*;;XH'`q#=+~'(%*;;;=;;=;;;=;;-----------------------------;;;=;]]]]]]]]]]]",
"]]]]]]]]]];;----------------;---;==;==;;;@y`'''Evmmmmc4&;XH'`q$=+!'/&*;;;;=;;=+XX+=;=---------------------------;==;;;]]]]]]]]]]",
"]]]]]]]]]:----------------------;;;;;=;=;XF'''''''''''PO;XH'`w$-@~'/%*;*+@@@++vYUj+;;;--------------------------;;;;=;:]]]]]]]]]",
"]]]]]]]]];--------;=------------=;==;;;=;XH'''''''''''/@-XJ'`q#=+~'(%=*,pssauZ''''z+;=-------------------------;==;=;;;]]]]]]]]]",
"]]]]]]]]:;=;==;-------------=;;----------+d`'''Wvvvv('/+=XJ'`w#=+~'/%=OJ'''``'''''EO=-------=-----------------=;-------;]]]]]]]]",
"]]]]]]]];=;;;;----------------=;--------;;+z!)P4XOO !'!@=XJ'`q$-@!'(%&@/''''''''''!O--------;-----------------;;--------]]]]]]]]",
"]]]]]]];;;==-------;--------------------==;++;O%;==+!'/+=XK'`w#=+~'(&&@/')ZZZE''''VO--------;=-----------------=--------;]]]]]]]",
"]]]]]]];;=;;-------=--------------------;;;==*;;;;=@TTz#;+z/`w#;+^'Q@=&unm.XX&K`_F@=---------;--------------------------;]]]]]]]",
"]]]]]];=------=;----------------------------;;=;=;=;3O+:-;+$c7&=@QH2&;;@O+;;;&O94O=;---------------;--------------------;;]]]]]]",
"]]]]]];;------=;----------------------------=;;=;;;;&=+XoOXOO=;=>yOOXOOXO&;;=;=$%;-----------------=--------------------;;]]]]]]",
"]]]]]:;;------;---------------------------;-=;;=;==:++gFEWPb<+:;:O+lJEWKv<O;=;;=----;-------------;;-----------------;--=;:]]]]]",
"]]]]];;=----------------------------=;----=;;=;;;=:OsW''''''/jO;+eE''''''/vX=;=;----=-------------=------------------=--=;;]]]]]",
"]]]];------=;-----------=;;=---;;;;==;;=--------;;Oz`''''`'''`v u)'''`'''''FO==;--=;;;=;=;----=;-------------------;----;;;;]]]]",
"]]]];-------------------;;=;---:==;;;;=;---;----;+s`''(Burz!''`j~'')NyyxW'''BO:=--;==;;=;;----;;-------------------=----;==;]]]]",
"]]]];;------------------=;=;--;+XX+;;==;---=----=@!''Y;X@@O@Y''`''!9X@@OOA''`w#:-;;;----;=;&oXO*------;;----------;;----==;;]]]]",
"]]];=-------------------=;;;=;+gJJs+;;;=------;# g''/&@;;;;@<('''`y+;;;;&.P''A X+==;----;;#3VPN;&----;*%=---------=-----;;=;:]]]",
"]]];------------------=-;;=;;+z`''`h+;;;;=;;-&X0v!''BX;-;--;XB'''T.-;;=;;+u`')FZd+O;----;&:Q'''I+=;;;+#5O@;;;;----------=;;=;]]]",
"]]];------------------;-;==;=+!''''WO;=;;;=;@;S`''''s+------&2E`)vO-=;;=;&2_''''`!zO&---;Oc'''''g+=:+j~`Er@;;=-------;--;;=;;]]]",
"]]:;--------------------;;;;*=(''''/@=;==;;@7!''''''l+------;$$93@;-----;$6`'''''''H#%--;OB'''''v+;@p`'''!:&==;-----;==;=;=;;:]]",
"]];;-------------------;==;=;OP''''Fo=;;=;$1!'''EY''P ------;==$&;------;Oz''!nK)'''I+*-;@i`'''`0$;XA'''''s@;;=;----;=;;=;;;=:]]",
"]];;==;;---;-----------------%<E''Y:*;--;=OP''`c.7`'`k+;;=;;=;;;;;=;;;==&</''z .5J'''Do:=;+m`'`z+;;oC'''''p+;;;=-------------;]]",
"]]=;;;;=---=------------------Xn''gO;;--:+g`''z.;XS'')6%;=;==;=;=;;==;;;$7`'W@=;#XF''`f+:==X!'/O=;=#w)'''T@===;;--------------]]",
"]:;==;=;----------------------oM''j+;;--;oU''J.;;&#Y'(3&=;;;;;===;;=;=;=;@zF9#;==*XI''YO=;=+/'~#=;;;+f`'E=%;;=;=-;----------=;:]",
"]:;;;;=;----------------------OM''j+***-$7_'`t@;=;$,zy#;;;===;;;;=;;;=;;;;+X$;;;;;@y`'`q#;+ !'/#==;;$9`'H.;=;;;=-=----------;;:]",
"];--=-----------------------=;OM''jO**=;+h''WO=;--;&+@;;---;=:=;;==;;=:=;;-;;=;;=;-oE''z++NY`'/#*;=;#w`'JX;;;=;;--------=;;=;;;]",
"];--;-----------------------;;OM'')(((R%oM''KX;=-;;-;;-;:%+@@+@;;;;=;$++++&;=;;=;;;XF''CoXT'''/@=;--#w`'JX;=;=;=--------;=;;=;;]",
"];----------------------------OM''''''D+.B''GX;;--------&9ggggu%=;;;&wgfgg5*=;;=;=;oV''CoOP`)_Z+----#q`'KX;==;;;--------;==;;=;]",
"];----------------------------$9Y~!!~Mo@,R''PX=;--------oP''`')9#;=;XH'''`z+;;=;=;;XK''MO;1332@;----#q`'JX=;;;==--------;;;=;;;]",
":;;=;;==;;=;--------;=;-@@*;=;;%O+++++@w~'''Ao;=----;;=#0`'''''BO==:XH''''z+;;=;;;*$/''SX;*&&&=:--:=#w`'JX::=:=;--------=;-----;",
":;;;=;;;=;----------;;&+yp=@::;=:====$<!'''D*=;;----=;;oB''''''QO=:=XH''''zO;;;==;=+T'''No;;*OXXXXXX 3`'KX==:=;;--------;=----;:",
":==;;=;=----------=;;*$K`'!r XXXXX&::OP''`x.&;------;==+Q''''''`p@:=XH''''z+=;;=;=;$4E''`f@$ePUUYIYIUY''JX;===:=------------;;;:",
":;;=;=;;---------;=;;OV''''(PIIIUIy#+g'''v.;--------;;+p`'')!'''FX=:XG''''z+;;=;;=;;@*W''Q+&%!''''''''''JX;;=:=;------------=;;;",
":;;=;;;=-------------XY''''''''''`6%oI''J.;=;-=;-----;XF'''PB'''(;&;XH''''zO----;=;;:+q`''j+Ov`````````_j+:=--------;;=;;=;;;;=;",
",=;=;=;=------------;XK'''''`````IO&,)'`y@;=--;;----;&,('''mr`'''l+;XG''''z+----=;;==;.H''KX--0qq00qq0q5@;=:--------=;;=;;==;==,",
",=;;==;;=-----------;@y)'''M7wqqe5*@y`'(#=;;---=-----+z'''`qo~'''PX;XH''''z+----=;;=;;+f''~+-=$#$###$#OX@;=---------=;;==;;;;;=,",
",=;=;;;=;-----------=;+eSHgO#####&:@p''~+=;=---------XY'''!<:J'''`9$XH''''zO----;;=;;=#0`'/#*;-=====&@gMuO;---------;=;;=;=;=;=,",
",=-----;--------=;;==;=#XX+==**=**;#w`'(;&;=;;=;----#q`'''````''''NOXH''''z+;=;=;;=;;=@r`'/@-=@@@+++@P''`BO:=;;;==;=----------=,",
",=-----=--------;;=;;=;;+$*******$&=#/''g+;;==;;---;oB''''''''''''WOXG''''zO;;;;=;;=;;on''EO&<T//~/!/''''`q#=;=;;;;;----------=,",
",=----------------=;;==@A(/(///((^w#XH''RX=;;;;=--;=+!''''''''''''`a G''''z+;==;=;;;=*+!''Vo+g''''''''''''s+;;==;==;--------=;=,",
";;----------------;;=;$9`'''''''''DO@r`''B =;=;=--;@d`'''TmNNmH''''F H''''z+;;=;;=;;*.A'')9$+n~!!!!!/''''`w#=;;;;;=;--------;;=:",
":=;=----------------=;#w`'_!!!~!!/I,=XS''`B+;=;;---XJ''''g OOX4`'''(OH''''zO=---;;;@XA'''Vo:;*+++++O+I''`V+-----=;------;=;;==;;",
",=;;----------------;;#q`'H ++++++#;=*@T'''mO;;=--=&I/~/E3&;;=+J/~~~rB/~~/g+;---=;#0Y'''Y+*;;-======%#jmi+;;----;=------;;==;;=,",
",==;----------------;=#w`'HX=====;==;;#,!''GX;--;=::#+@++*;;;=;++@+@;$@++@&;----;*$!'''I>@OXXXXX+:=;;=+O+;------;;=;----=;;;;;;:",
":;;=----------------;;#w`'HX=;;=;&O++&;XY''z+---=;;=;====;=;;=;=====;=====------;&<)''H++@ZYUUYIj@;;==;;--------=;;=----=;=;==;:",
"];;=;;;=--------=;----#w`'JX;;;;&4I~~z+O!'`r@;--;;=;;=;=;;==;;;=----;==;;;;=;=;=;*&('`q+6E''''''~@==--------------------;=----=]",
"];=;;==;--------------#w`'JX=;=;Ov'''mo+!'`s@;--;=;;-&oo*;;;;=;=-----;;-OX#:=:;;:&,('`wOf``````'(*=;--------------------;;----;]",
"];;;;;;;-------;------#q`'JX;;=;Om''_l+XP''Mo;--;=;=O<ZS2&--==;;--;---=*BFqX*;=;;@y`'(:&,qqqq5!'(&*=--------------------=---=;;]",
"];;===;=-------=-----;#0`'HX=;;=Om''vO:OM''EO---=;=Ov(''Bo--;;;=--=---+g''`V+$;;:XB''To:-#$##XW'/&=;--------------------;---;;;]",
"];--;---=;;-;;;=;;;=-;Os`'P ;=;;Om''vO;#0`''vX;;;=+H'''`z+;;----------@y`'''Y%&;$,/''nO-;----OE'(&*;;;--------;-==;-----=;;;;;;]",
"];------;==;==;;==;;-@y)''`m+;==Ov''vO;;XS''_uX=-OM'''Wh+-;=---;------;@rU'''Do&XK''(,&------.E'/+=;;=--------=-;;------;;===;:]",
"]]=;----;;;;;=;=;=;=:oL''''(-*;=+H''P+*;%,~''_vo.-(''DO+---;-;%OO*-----;@.m`'`5+H'''cO------@i)'`g+;------------------=;=;=;;;]]",
"]];-----=;==;;;=;;=:=XE''''_5%;OB''''DO;:+y)'''WBF''I &;;=-=;%0NM3&-----;= J''Y!'''Jo;----;%4(''')0#----------------;=;;=;;;=;]]",
"]]:;=;-----------=;;;oC''''E+==+!''''(#*;;Oy/'''''''kO------;oY''Ho:;;=;;=+j''''''J#&;=;;=;Oc'''''MO-------;--------;=;;=;=;=;]]",
"]]:;;;----;=------;===$K`'!r@;;O!''''/@=;=;+,S_'''''s@------&3)''^+==;;=;=+g''''(mO%;;=;;==+z'''''nO-------=--------=;;==;;;;:]]",
"]]];;==;------------;;=+ti$@;=;Ov''''VO;;=;;&o7vG/''vO------Ov'''`y@=;;=;;.D''Wx1O;---;=;;;*;~'''(4&----------------=;;=;;==:]]]",
"]]];=;;;------------;===@@*;;;=;Ov!!B+=;=;;=::%O z''WO&----&@!''''S ;;=;;Ow_'`y.&;;----;=;=;@wL/Pt+;----------------;;=;;=;;:]]]",
"]]]:;;;=----------------;;------;+O+O=;=;=;;==:=&:/''HX+&=@.H''`''`i.%&@.e!''YO---------;;===#o+o@:=--------------=;;==;=;;=:]]]",
"]]]];==;-----------------;------;;==;;;=;;===:=;:Oz'''Tg,=eP'''zK'')v6<tZ_''(w@---------=;;;;;;=:;=;--------------;;=;;;;=;;]]]]",
"]]]];;=;------------------------=;;-;=;;=;;;;;;=;;oB'''')(`'''S 4!'''`)`'''(u+;---------;=;==;--;;;=---------------=;;;=;==:]]]]",
"]]]]:;;=------------------------;==;=;;==;=;==;;=:=ov(''''''`Z+=@7E'''''''Yw+;----------;=;;=;--==;;----------------;==;=;=,]]]]",
"]]]]];=;--------------------------;==;;=;=;=;;=;;=;;O5VE((!HtX*;;@@vY/(!HfO@;-------=;==;-------;==;;;=;----------------;;=]]]]]",
"]]]]];;=---------------------------;;=;;;;;=;=--;==;;%oO;:@Xo1,-;;+oo%:+X@=:--------;;;;--------;;;==;;=---------------;;=,]]]]]",
"]]]]]];;--------------------------=;;=;==;;;:@XoO=;:;@@%**-+gT9&;;v3o*&:$OO=;-------;==;---=----=;;;=;;=----------=;--;=;;]]]]]]",
"]]]]]];;--------------------------;=;;;=;==;@yJEB#@@Odd4=;+C``3%=+/(B#:&wmP0%-------;=;;---;----;==;;=;;----------;;=-;==:]]]]]]",
"]]]]]]];----------------------------;=;;;=;#e)'''PraeT'(0#XY')4&=+!'(**XH'`e#;;-+XX@;;;=------------;=;-----=-------;=;;;]]]]]]]",
"]]]]]]];------;=------------------=-;==;=:=XA'''''```''`e#XI')4&=+!'(*=XJ'`q@$%+gJHp+;;=------------=;------;-------;=;=;]]]]]]]",
"]]]]]]]]------;=--;=--------------;-;;;;;=;XJ'''''''''')6$oU'_4&=+!'/=*XJ'`u571m'''`f@;;----------------------------=;;;]]]]]]]]",
"]]]]]]]];------;--------------------=;==;;;+k''''(ASSSSj@:oI'_3%=+!'(**XJ''```_`''''Yo;=----------------------------;;=:]]]]]]]]",
"]]]]]]]]];;;;==;;;=;------------------------+N(`Wt XXXX@:=XU'_4&;+!'(*=XH'''''''''''WO=-----------------------------;;;]]]]]]]]]",
"]]]]]]]]]:;=;;;==;;=------------------------;O19@@:;:==:=;oU'_3&=+!'(**$eLTTYTY/''''Ao;-----------------------------=;:]]]]]]]]]",
"]]]]]]]]]];;=;;;-------;--------------------=;&$==;=;=:=:=XI'_4%=+!'(**;#XXooo 5T``P,&------------------------=-----;;]]]]]]]]]]",
"]]]]]]]]]]];;==;-------=--------------------;;;;=:=;;;=;=:oI')4&=+!'(**=;:--;::#+ye+&;------------------------;-----;]]]]]]]]]]]",
"]]]]]]]]]]]:;;=;------------------------------;OOo+;=;;=;;XI')4%;o!'(@=;=--------@#---------------;=--------------;=:]]]]]]]]]]]",
"]]]]]]]]]]]];=;;------------------------------+mWEzXoOOooO I')4&@9(')w@;;-------;--;------------------------------;;]]]]]]]]]]]]",
"]]]]]]]]]]]]];;=-----------------------------OB''''SBBBBBBN!')4#<!'''/<&------------;-=-----------------------=;--;]]]]]]]]]]]]]",
"]]]]]]]]]]]]]];=----------------------------*#/''''''''''''''`5Oz'''''c+------------=;;-----------------------;=--]]]]]]]]]]]]]]",
"]]]]]]]]]]]]]]:;----------------------------*&(''''''''''''''/=Ov'''''mO------------------------------------=;;;;:]]]]]]]]]]]]]]",
"]]]]]]]]]]]]]]]:-----------------------------OG''''Fjzzzzzzzzw$$0)''')0$----------------;=------------------;==;;]]]]]]]]]]]]]]]",
"]]]]]]]]]]]]]]]];;---------;-----------------*;H))A+O++O+O++O#;-+d!_!g+;------------------------------------;;;:]]]]]]]]]]]]]]]]",
"]]]]]]]]]]]]]]]]]---;=-----=------------------&O1,O==;;-;--;----:@+4@+;;--------------------------------=---=;;]]]]]]]]]]]]]]]]]",
"]]]]]]]]]]]]]]]]]];;;=;;------------------------&&------;;------;==&=;=;--------------------------------;;=;=;]]]]]]]]]]]]]]]]]]",
"]]]]]]]]]]]]]]]]]]];=;;=---------------------;--;;------;=------;;=;=;;=--------------------------------;=;;;]]]]]]]]]]]]]]]]]]]",
"]]]]]]]]]]]]]]]]]]]];;----------------------;=--;-------==;-----=;;==;;=-----------------------------------;]]]]]]]]]]]]]]]]]]]]",
"]]]]]]]]]]]]]]]]]]]]];----------------------;=--=;------;;=;----;==;;;=;----------------------------------;]]]]]]]]]]]]]]]]]]]]]",
"]]]]]]]]]]]]]]]]]]]]]]:;;==;;=;;=;--------------;=--------------;;=;;---------------------------=;;=;==;;:]]]]]]]]]]]]]]]]]]]]]]",
"]]]]]]]]]]]]]]]]]]]]]]]:=;;;=;;=----------------;---------------=;;==;--------------------------;;=;=;;;;]]]]]]]]]]]]]]]]]]]]]]]",
"]]]]]]]]]]]]]]]]]]]]]]]]];;==;=;----------------=;------------------=;----------------------------=;;;;]]]]]]]]]]]]]]]]]]]]]]]]]",
"]]]]]]]]]]]]]]]]]]]]]]]]]];;;;=;-------------------------------;----------------------------------;;=;]]]]]]]]]]]]]]]]]]]]]]]]]]",
"]]]]]]]]]]]]]]]]]]]]]]]]]]]:=;;=----;;=;-----------------------=------------------------------------:]]]]]]]]]]]]]]]]]]]]]]]]]]]",
"]]]]]]]]]]]]]]]]]]]]]]]]]]]]];=;----==;;------------------------------------=;----------=---------;]]]]]]]]]]]]]]]]]]]]]]]]]]]]]",
"]]]]]]]]]]]]]]]]]]]]]]]]]]]]]];;;-;;;;;=------------------------------------------------;------;;:]]]]]]]]]]]]]]]]]]]]]]]]]]]]]]",
"]]]]]]]]]]]]]]]]]]]]]]]]]]]]]]]];;==;==;-------------------------------------------------------;]]]]]]]]]]]]]]]]]]]]]]]]]]]]]]]]",
"]]]]]]]]]]]]]]]]]]]]]]]]]]]]]]]]]]:;;==;--------------=;-------------;=;--------;;==;=--;==;;:]]]]]]]]]]]]]]]]]]]]]]]]]]]]]]]]]]",
"]]]]]]]]]]]]]]]]]]]]]]]]]]]]]]]]]]]];;;;-----------------------------=;;--------=;;;;;;=;;;:]]]]]]]]]]]]]]]]]]]]]]]]]]]]]]]]]]]]",
"]]]]]]]]]]]]]]]]]]]]]]]]]]]]]]]]]]]]]]:;------------------------------;=--------;=;===;;;;]]]]]]]]]]]]]]]]]]]]]]]]]]]]]]]]]]]]]]",
"]]]]]]]]]]]]]]]]]]]]]]]]]]]]]]]]]]]]]]]];;----------------------------;=--------;=;;;;;;]]]]]]]]]]]]]]]]]]]]]]]]]]]]]]]]]]]]]]]]",
"]]]]]]]]]]]]]]]]]]]]]]]]]]]]]]]]]]]]]]]]]]]:;;;-;;=;----=;=---------;=;;;==;----;;;;:]]]]]]]]]]]]]]]]]]]]]]]]]]]]]]]]]]]]]]]]]]]",
"]]]]]]]]]]]]]]]]]]]]]]]]]]]]]]]]]]]]]]]]]]]]]]:;;=;;----;;;---------;=;=;;;;--=;;:]]]]]]]]]]]]]]]]]]]]]]]]]]]]]]]]]]]]]]]]]]]]]]",
"]]]]]]]]]]]]]]]]]]]]]]]]]]]]]]]]]]]]]]]]]]]]]]]]]]::;;--;;;;=---=;-=;;;==;;;::]]]]]]]]]]]]]]]]]]]]]]]]]]]]]]]]]]]]]]]]]]]]]]]]]]",
"]]]]]]]]]]]]]]]]]]]]]]]]]]]]]]]]]]]]]]]]]]]]]]]]]]]]]]]>::;;,---;;=,:::,:]]]]]]]]]]]]]]]]]]]]]]]]]]]]]]]]]]]]]]]]]]]]]]]]]]]]]]]"
};
